<svg id="Calque_1" data-name="Calque 1" xmlns="http://www.w3.org/2000/svg" viewBox="0 0 24 24"><defs><style>.cls-1{fill:#0f4586;}</style></defs><path class="cls-1" d="M21.9,8.89l-1-4.37A2,2,0,0,0,18.94,3H5.05a2,2,0,0,0-1.9,1.52l-1,4.37a3.38,3.38,0,0,0,.62,2.88,3.83,3.83,0,0,0,.28.29V19a2,2,0,0,0,2,2H19a2,2,0,0,0,2-2V12.06a3.7,3.7,0,0,0,.28-.28A3.36,3.36,0,0,0,21.9,8.89Zm-3-3.9L20,9.36a1.36,1.36,0,0,1-.25,1.17,1.17,1.17,0,0,1-.94.47,1.25,1.25,0,0,1-1.21-1.14L17,5ZM13,5h2l.54,4.52a1.34,1.34,0,0,1-.33,1.07,1.19,1.19,0,0,1-.95.41A1.27,1.27,0,0,1,13,9.69ZM8.49,9.52,9,5h2V9.69A1.28,1.28,0,0,1,9.71,11a1.2,1.2,0,0,1-.89-.41A1.42,1.42,0,0,1,8.49,9.52ZM4,9.36,5.05,5H7L6.44,9.86A1.26,1.26,0,0,1,5.23,11a1.15,1.15,0,0,1-.93-.47A1.32,1.32,0,0,1,4,9.36ZM5,19V13a1.81,1.81,0,0,0,.23,0,3.13,3.13,0,0,0,2.24-.95A3.22,3.22,0,0,0,9.78,13,3.17,3.17,0,0,0,12,12.07,3.28,3.28,0,0,0,14.3,13a3.18,3.18,0,0,0,2.24-.95,3.13,3.13,0,0,0,2.24.95A1.81,1.81,0,0,0,19,13v6Z"/></svg>