<svg id="Calque_1" data-name="Calque 1" xmlns="http://www.w3.org/2000/svg" viewBox="0 0 24 24"><defs><style>.cls-1{fill:#0f4586;}</style></defs><polygon class="cls-1" points="12.2 17 15.8 17 15.8 21.8 18.2 21.8 18.2 17 21.8 17 17 12.2 12.2 17"/><path class="cls-1" d="M14.6,18.2H12.2a1.2,1.2,0,0,1-.85-2.05l1-1-.33,0A3.21,3.21,0,1,1,15.21,12c0,.11,0,.22,0,.33l1-1A1.24,1.24,0,0,1,17,11a1.2,1.2,0,0,1,.85.35l1,1c0-.11,0-.23,0-.35a6.56,6.56,0,0,0-.07-.9l1.94-1.51A.47.47,0,0,0,20.86,9L19,5.83a.46.46,0,0,0-.56-.2l-2.28.92a6.47,6.47,0,0,0-1.55-.9l-.35-2.43a.44.44,0,0,0-.44-.39H10.17a.45.45,0,0,0-.45.39L9.37,5.65a7,7,0,0,0-1.55.9L5.54,5.63a.45.45,0,0,0-.56.2L3.15,9a.45.45,0,0,0,.11.59L5.19,11.1a6.78,6.78,0,0,0,0,1.8L3.26,14.41a.46.46,0,0,0-.11.59L5,18.17a.47.47,0,0,0,.56.2l2.28-.92a6.67,6.67,0,0,0,1.55.9l.35,2.43a.45.45,0,0,0,.45.39h3.67a.44.44,0,0,0,.44-.39l.32-2.21Z"/><polygon class="cls-1" points="12.2 17 15.8 17 15.8 21.8 18.2 21.8 18.2 17 21.8 17 17 12.2 12.2 17"/></svg>