<svg id="Calque_1" data-name="Calque 1" xmlns="http://www.w3.org/2000/svg" viewBox="0 0 24 24"><defs><style>.cls-1{fill:#0f4486;}</style></defs><path class="cls-1" d="M14,2H6A2,2,0,0,0,4,4L4,20a2,2,0,0,0,2,2H18a2,2,0,0,0,2-2V8ZM13,14v1H9.79a4.07,4.07,0,0,0,0,.5,4.19,4.19,0,0,0,0,.5H13v1H10.13A3.22,3.22,0,0,0,13,18.75a3.17,3.17,0,0,0,2.1-.79l.9.89A4.49,4.49,0,0,1,8.77,17H7V16H8.54a4.19,4.19,0,0,1,0-.5,4.07,4.07,0,0,1,0-.5H7V14H8.77A4.49,4.49,0,0,1,16,12.15l-.89.88a3.24,3.24,0,0,0-5,1Zm0-5V3.5L18.51,9Z"/></svg>