<svg id="Calque_1" data-name="Calque 1" xmlns="https://www.w3.org/2000/svg" viewBox="0 0 24 24"><defs><style>.cls-1{fill:#0f4486;}</style></defs><path class="cls-1" d="M19.35,9.86A7.69,7.69,0,0,0,12,3.27,7.45,7.45,0,0,0,5.35,7.68,6.36,6.36,0,0,0,0,14.18a6.3,6.3,0,0,0,6,6.55H19a5.25,5.25,0,0,0,5-5.46A5.25,5.25,0,0,0,19.35,9.86Zm-3.27,5.83A1.09,1.09,0,0,1,15,16.78H9.53a1.09,1.09,0,0,1-1.09-1.09V11.33a1.09,1.09,0,0,1,1.09-1.09V9.69a2.73,2.73,0,0,1,5.46,0v.55a1.09,1.09,0,0,1,1.09,1.09Z"/><path class="cls-1" d="M12.26,7.84a1.85,1.85,0,0,0-1.85,1.85v.55h3.71V9.69A1.85,1.85,0,0,0,12.26,7.84Z"/></svg>