<svg id="Calque_1" data-name="Calque 1" xmlns="https://www.w3.org/2000/svg" viewBox="0 0 24 24"><defs><style>.cls-1{fill:#0f4486;}</style></defs><path class="cls-1" d="M12,2A10,10,0,1,0,22,12,10,10,0,0,0,12,2Zm3.61,6.34a1.93,1.93,0,1,1-1.93,1.93A1.92,1.92,0,0,1,15.61,8.34Zm-6-1.58A2.36,2.36,0,1,1,7.25,9.12,2.36,2.36,0,0,1,9.61,6.76Zm0,9.13v3.75a8,8,0,0,1-5.14-5C5.52,13.56,8.14,13,9.61,13a10.17,10.17,0,0,1,1.9.22A3,3,0,0,0,9.61,15.89ZM12,20a6.85,6.85,0,0,1-.79,0V15.89c0-1.42,2.94-2.13,4.4-2.13a7.09,7.09,0,0,1,3.84,1.15A8,8,0,0,1,12,20Z"/></svg>