<svg id="Calque_1" data-name="Calque 1" xmlns="https://www.w3.org/2000/svg" viewBox="0 0 24 24"><defs><style>.cls-1{fill:#3c3c3b;}</style></defs><path class="cls-1" d="M17.48,14.85l-2.83-1.41a1,1,0,0,0-.34-.07h-.48V9.63a.94.94,0,1,0-1.87,0v6.7c-2.24-.48-2.21-.47-2.29-.47a.67.67,0,0,0-.49.21l-.49.5,3.08,3.08a.92.92,0,0,0,.66.27h4.24a.91.91,0,0,0,.9-.79L18,15.84c0-.05,0-.09,0-.13A.94.94,0,0,0,17.48,14.85Z"/><path class="cls-1" d="M20,18a2,2,0,0,0,2-2V6a2,2,0,0,0-2-2H4A2,2,0,0,0,2,6V16a2,2,0,0,0,2,2H0v2H10.6L7.17,16.57,7.73,16H4V6H20V16h-.9l-.47,3.28a2.2,2.2,0,0,1-.25.72H24V18Z"/></svg>