<svg id="Calque_1" data-name="Calque 1" xmlns="https://www.w3.org/2000/svg" viewBox="0 0 24 24"><defs><style>.cls-1{fill:#3c3c3b;}</style></defs><path class="cls-1" d="M20.81,14.86a2.2,2.2,0,0,0-1.62-2.26c.36-.56.83-1.08,1.14-1.08a.47.47,0,0,0,.48-.47,8.53,8.53,0,0,1,.48-3.34.47.47,0,0,0,.05-.94c-2-.26-7.2-1.52-7.2-4.29a.48.48,0,0,0-.81-.34A2.76,2.76,0,0,1,11.76,3a.48.48,0,0,0-.47.48,1.77,1.77,0,0,1-.62,1.25,3.08,3.08,0,0,1-2.6.19A.51.51,0,0,0,7.66,5a.46.46,0,0,0-.18.37c0,.55-.17,1.34-.43,1.42a7.62,7.62,0,0,0-4.2.15c-.4.19-.61.34-.61,1.29,0,.34.55.44.83.47C5.1,9.14,6.26,10.11,7,13a7.46,7.46,0,0,1-1.33,6.38.52.52,0,0,0-.08.43.48.48,0,0,0,.31.31c.23.08,5.81,1.93,7.77,1.93a.47.47,0,0,0,.42-.26s.8-1.54,2-1.74a2.42,2.42,0,0,1,2,.91.48.48,0,0,0,.67,0l2.86-2.86a.46.46,0,0,0,0-.67A3.73,3.73,0,0,1,20.81,14.86Z"/></svg>