<svg id="Calque_1" data-name="Calque 1" xmlns="https://www.w3.org/2000/svg" viewBox="0 0 24 24"><defs><style>.cls-1{fill:#3c3c3b;}</style></defs><path class="cls-1" d="M10.67,4l-.6-.74A.64.64,0,0,0,9.56,3H4.31a.64.64,0,0,0-.5.24L3.2,4a.81.81,0,0,0-.2.55V10a.88.88,0,0,0,.88.88H10a.89.89,0,0,0,.88-.88V4.53A.82.82,0,0,0,10.67,4Z"/><path class="cls-1" d="M20.8,4l-.61-.74a.64.64,0,0,0-.5-.24H14.44a.64.64,0,0,0-.51.24l-.6.74a.81.81,0,0,0-.2.55V10a.88.88,0,0,0,.87.88h6.13A.88.88,0,0,0,21,10V4.53A.81.81,0,0,0,20.8,4Z"/><path class="cls-1" d="M10.67,14.1l-.6-.73a.64.64,0,0,0-.51-.24H4.31a.64.64,0,0,0-.5.24l-.61.73a.85.85,0,0,0-.2.56v5.47a.87.87,0,0,0,.88.87H10a.88.88,0,0,0,.88-.87V14.66A.86.86,0,0,0,10.67,14.1Z"/><path class="cls-1" d="M20.8,14.1l-.61-.73a.64.64,0,0,0-.5-.24H14.44a.64.64,0,0,0-.51.24l-.6.73a.85.85,0,0,0-.2.56v5.47A.87.87,0,0,0,14,21h6.13a.87.87,0,0,0,.87-.87V14.66A.85.85,0,0,0,20.8,14.1Z"/></svg>