<svg id="Calque_1" data-name="Calque 1" xmlns="http://www.w3.org/2000/svg" viewBox="0 0 24 24"><defs><style>.cls-1{fill:#3c3c3d;}</style></defs><polygon class="cls-1" points="8.04 10 15.96 10 15.15 7 8.85 7 8.04 10"/><polygon class="cls-1" points="17.31 15 16.5 12 7.5 12 6.69 15 17.31 15"/><path class="cls-1" d="M18.38,19a.7.7,0,0,0,0-.14L17.85,17H6.15l-.5,1.86a.7.7,0,0,0,0,.14H3v3H21V19Z"/><path class="cls-1" d="M14.61,5l-.39-1.43A1.9,1.9,0,0,0,12.53,2H11.47A1.9,1.9,0,0,0,9.78,3.57L9.39,5Z"/></svg>