<svg id="Calque_1" data-name="Calque 1" xmlns="http://www.w3.org/2000/svg" viewBox="0 0 24 24"><defs><style>.cls-1{fill:#3c3c3d;}</style></defs><path class="cls-1" d="M2.59,19.27l1.34.56v-9L1.5,16.66A2,2,0,0,0,2.59,19.27Zm19.91-3.7-5-12a2,2,0,0,0-1.81-1.23,1.85,1.85,0,0,0-.79.15l-7.37,3A2,2,0,0,0,6.34,7.38a1.89,1.89,0,0,0,.15.8l5,12a2,2,0,0,0,1.83,1.23,2.07,2.07,0,0,0,.77-.15l7.36-3.05A2,2,0,0,0,22.5,15.57ZM8.35,8.38a1,1,0,1,1,1-1A1,1,0,0,1,8.35,8.38ZM7.93,21.63H9.38L5.93,13.28v6.35A2,2,0,0,0,7.93,21.63Z"/></svg>