<svg id="Calque_1" data-name="Calque 1" xmlns="https://www.w3.org/2000/svg" viewBox="0 0 24 24"><defs><style>.cls-1{fill:#3c3c3d;}</style></defs><path class="cls-1" d="M12.35,2.84a9,9,0,0,0,0,18,1.5,1.5,0,0,0,1.11-2.51,1.49,1.49,0,0,1,1.12-2.49h1.77a5,5,0,0,0,5-5C21.35,6.42,17.32,2.84,12.35,2.84Zm-5.5,9a1.5,1.5,0,1,1,1.5-1.5A1.5,1.5,0,0,1,6.85,11.84Zm3-4a1.5,1.5,0,1,1,1.5-1.5A1.5,1.5,0,0,1,9.85,7.84Zm5,0a1.5,1.5,0,1,1,1.5-1.5A1.5,1.5,0,0,1,14.85,7.84Zm3,4a1.5,1.5,0,1,1,1.5-1.5A1.5,1.5,0,0,1,17.85,11.84Z"/></svg>