<svg id="Calque_1" data-name="Calque 1" xmlns="https://www.w3.org/2000/svg" viewBox="0 0 24 24"><defs><style>.cls-1{fill:#fff;}</style></defs><path class="cls-1" d="M11.92,9.5h2v-3h3v-2h-3v-3h-2v3h-3v2h3Zm-4,9a2,2,0,1,0,2,2A2,2,0,0,0,7.92,18.5Zm10,0a2,2,0,1,0,2,2A2,2,0,0,0,17.92,18.5ZM8.09,15.25l0-.12L9,13.5h7.45a2,2,0,0,0,1.75-1l3.86-7-1.74-1h0l-1.1,2-2.76,5h-7l-.13-.27L7.08,6.5l-1-2-.94-2H1.92v2h2l3.6,7.59L6.17,14.54a1.93,1.93,0,0,0-.25,1,2,2,0,0,0,2,2h12v-2H8.34A.25.25,0,0,1,8.09,15.25Z"/></svg>