<svg id="Calque_1" data-name="Calque 1" xmlns="https://www.w3.org/2000/svg" viewBox="0 0 24 24"><defs><style>.cls-1{fill:#fff;}</style></defs><circle class="cls-1" cx="12.2" cy="5.31" r="2.5"/><path class="cls-1" d="M21.5,14.31l-2.76-1.38a1.16,1.16,0,0,1-.4-.33l-2.5-3.34a1.15,1.15,0,0,0-.9-.45H9.06a1.15,1.15,0,0,0-.9.45L5.66,12.6a1.16,1.16,0,0,1-.4.33L2.5,14.31a1.12,1.12,0,1,0,1,2L6.31,14.9a.9.9,0,0,0,.33-.25l2.23-2.47a1.12,1.12,0,0,1,.33-.24v4.87h-5a1.5,1.5,0,1,0,0,3H5.71a1,1,0,0,0-.08.53,1,1,0,0,0,1.14.84l5.43-.84,5.43.84a1,1,0,0,0,1.14-.84,1,1,0,0,0-.08-.53H20.2a1.5,1.5,0,0,0,0-3h-5v-4.3l2.17,2.17a1,1,0,0,0,.29.21l2.84,1.42a1.12,1.12,0,1,0,1-2Z"/></svg>